# AST/ASF file generated using VICON BodyLanguage
# -----------------------------------------------
:version 1.10
:name VICON
:units
  mass 1.0
  length 0.45
  angle deg
:documentation
   .ast/.asf automatically generated from VICON data using
   VICON BodyBuilder and BodyLanguage model FoxedUp or BRILLIANT.MOD
:root
   order TX TY TZ RX RY RZ
   axis XYZ
   position 0 0 0  
   orientation 0 0 0 
:bonedata
  begin
     id 1 
     name lhipjoint
     direction 0.624716 -0.669793 0.401383 
     length 2.38238 
     axis 0 0 0  XYZ
  end
  begin
     id 2 
     name lfemur
     direction 0.34202 -0.939693 0  
     length 6.4574  
     axis 0 0 20  XYZ
    dof rx ry rz
    limits (-160.0 20.0)
           (-70.0 70.0)
           (-60.0 70.0)
  end
  begin
     id 3 
     name ltibia
     direction 0.34202 -0.939693 0   
     length 7.68739   
     axis 0 0 20   XYZ
    dof rx
    limits (-10.0 170.0)
  end
  begin
     id 4 
     name lfoot
     direction 0.0681309 -0.187188 0.979959   
     length 2.46615   
     axis -90 7.62852e-016 20   XYZ
    dof rx rz
    limits (-45.0 90.0)
           (-70.0 20.0)
  end
  begin
     id 5 
     name ltoes
     direction 1.53566e-011 -4.21819e-011 1   
     length 1.2376   
     axis -90 7.62852e-016 20   XYZ
    dof rx
    limits (-90.0 20.0)
  end
  begin
     id 6 
     name rhipjoint
     direction -0.644473 -0.655875 0.393043   
     length 2.43293  
     axis 0 0 0  XYZ 
  end
  begin
     id 7 
     name rfemur
     direction -0.34202 -0.939693 0   
     length 6.7025   
     axis 0 0 -20   XYZ
    dof rx ry rz
    limits (-160.0 20.0)
           (-70.0 70.0)
           (-70.0 60.0)
  end
  begin
     id 8 
     name rtibia
     direction -0.34202 -0.939693 0   
     length 7.80547   
     axis 0 0 -20   XYZ
    dof rx
    limits (-10.0 170.0)
 end
 begin
     id 9 
     name rfoot
     direction -0.0756734 -0.207911 0.975216   
     length 2.40315  
     axis -90 -7.62852e-016 -20   XYZ
    dof rx rz
    limits (-45.0 90.0)
           (-20.0 70.0)
  end
  begin
     id 10 
     name rtoes
     direction -1.5353e-011 -4.21879e-011 1   
     length 1.20477   
     axis -90 -7.62852e-016 -20   XYZ
    dof rx
    limits (-90.0 20.0)
  end
  begin
     id 11 
     name lowerback
     direction 0.0160353 0.987463 -0.157037   
     length 2.18572   
     axis 0 0 0   XYZ
    dof rx ry rz
    limits (-20.0 45.0)
           (-30.0 30.0)
           (-30.0 30.0)
  end
  begin
     id 12 
     name upperback
     direction -0.00499661 0.999756 0.0215076   
     length 2.18016   
     axis 0 0 0   XYZ
    dof rx ry rz
    limits (-20.0 45.0)
           (-30.0 30.0)
           (-30.0 30.0)
  end
  begin
     id 13 
     name thorax
     direction -0.00921346 0.995333 0.0960619   
     length 2.24923   
     axis 0 0 0   XYZ
    dof rx ry rz
    limits (-20.0 45.0)
           (-30.0 30.0)
           (-30.0 30.0)
  end
  begin
     id 14 
     name lowerneck
     direction 0.0274184 0.991181 0.12965   
     length 1.70911   
     axis 0 0 0   XYZ
    dof rx ry rz
    limits (-20.0 45.0)
           (-30.0 30.0)
           (-30.0 30.0)
  end
  begin
     id 15 
     name upperneck
     direction 0.0015627 0.999959 -0.00893559   
     length 1.69312   
     axis 0 0 0   XYZ
    dof rx ry rz
    limits (-20.0 45.0)
           (-30.0 30.0)
           (-30.0 30.0)
  end
  begin
     id 16
     name head
     direction -0.00230242 0.999856 -0.0168327  
     length 1.80241  
     axis 0 0 0   XYZ
    dof rx ry rz
    limits (-20.0 45.0)
           (-30.0 30.0)
           (-30.0 30.0)
  end
  begin
     id 17 
     name lclavicle
     direction 0.955523 0.290741 -0.0494489  
     length 3.84275  
     axis 0 0 0   XYZ
    dof ry rz
    limits (-20.0 10.0)
           (0.0 20.0)
  end
  begin
     id 18 
     name lhumerus
     direction 1 -4.48967e-011 -3.18382e-028   
     length 5.17714   
     axis 180 -30 -90   XYZ
    dof rx ry rz
    limits (-60.0 90.0)
           (-90.0 90.0)
           (-90.0 90.0)
  end
  begin
     id 19
     name lradius
     direction 1 -4.48968e-011 -2.22911e-027   
     length 3.43679   
     axis 180 -30 -90   XYZ
    dof rx
    limits (-10.0 170.0)
  end
  begin
     id 20
     name lwrist
     direction 1 -4.48951e-011 -6.32245e-027   
     length 1.7184   
     axis 3.57107e-015 90 90   XYZ
    dof ry
    limits (-180.0 0.0)
 end
  begin
     id 21 
     name lhand
     direction 1 -4.48924e-011 -1.26431e-026   
     length 0.573117   
     axis 8.06912e-015 90 90   XYZ
    dof rx rz
    limits (-90.0 90.0)
           (-45.0 45.0)
  end
  begin
     id 22 
     name lfingers
     direction 1 -4.49001e-011 -2.52965e-026   
     length 0.462062   
     axis 1.61381e-014 90 90   XYZ
    dof rx
    limits (0.0 90.0)
  end
  begin
     id 23
     name lthumb
     direction 0.707107 -6.35008e-011 0.707107   
     length 0.663431   
     axis -90 45 -1.62303e-014   XYZ
    dof rx rz
    limits (-45.0 45.0)
           (-45.0 45.0)
  end
  begin
     id 24 
     name rclavicle
     direction -0.963917 0.256881 -0.0698287   
     length 3.73057  
     axis 0 0 0   XYZ 
    dof ry rz
    limits (-10.0 20.0)
           (-20.0 0.0)
  end
  begin
     id 25 
     name rhumerus
     direction -1 -4.48962e-011 -2.73982e-027  
     length 5.23908   
     axis 180 30 90   XYZ
    dof rx ry rz
    limits (-90.0 60.0)
           (-90.0 90.0)
           (-90.0 90.0)
  end
  begin
     id 26 
     name rradius
     direction -1 -4.48968e-011 -4.33218e-027   
     length 3.46485   
     axis 180 30 90   XYZ
    dof rx
    limits (-10.0 170.0)
  end
  begin
     id 27 
     name rwrist
     direction -1 -4.48989e-011 -6.32372e-027   
     length 1.73243   
     axis 3.57107e-015 -90 -90   XYZ
    dof ry
    limits (-180.0 0.0)
  end
  begin
     id 28
     name rhand
     direction -1 -4.48948e-011 -1.26448e-026   
     length 0.608752   
     axis 8.06912e-015 -90 -90   XYZ
    dof rx rz
    limits (-90.0 90.0)
           (-45.0 45.0)
  end
  begin
     id 29
     name rfingers
     direction -1 -4.48962e-011 -2.52913e-026   
     length 0.490792   
     axis 1.61381e-014 -90 -90   XYZ
    dof rx
    limits (0.0 90.0)
  end
  begin
     id 30
     name rthumb
     direction -0.707107 -6.34878e-011 0.707107   
     length 0.704682   
     axis -90 -45 1.62303e-014   XYZ
    dof rx rz
    limits (-45.0 45.0)
           (-45.0 45.0)
  end
:hierarchy
  begin
    root lhipjoint rhipjoint lowerback
    lhipjoint lfemur
    lfemur ltibia
    ltibia lfoot
    lfoot ltoes
    rhipjoint rfemur
    rfemur rtibia
    rtibia rfoot
    rfoot rtoes
    lowerback upperback
    upperback thorax
    thorax lowerneck lclavicle rclavicle
    lowerneck upperneck
    upperneck head
    lclavicle lhumerus
    lhumerus lradius
    lradius lwrist
    lwrist lhand lthumb
    lhand lfingers
    rclavicle rhumerus
    rhumerus rradius
    rradius rwrist
    rwrist rhand rthumb
    rhand rfingers
  end

#!OML:ASF G:\JayActor3\Patient Classification 1\Patient 1\Session 6\male.ASF
:FULLY-SPECIFIED
:DEGREES
379
root 41.6494 15.92 12.0567 169.225 -41.6066 -168.003
lowerback -6.88234 -5.64316 5.5501
upperback -0.987739 -8.71932 7.46845
thorax 3.1923 -4.53986 3.82799
lowerneck 1.48562 10.4018 9.80526
upperneck 3.68851 14.264 -9.73073
head 2.259 7.11043 -4.08534
rclavicle 4.45278e-014 -2.06736e-014
rhumerus -35.4706 -2.89792 -76.8191
rradius 27.0806
rwrist 0.419523
rhand -17.8339 -4.6896
rfingers 7.12502
rthumb 8.43061 -34.5013
lclavicle 4.45278e-014 -2.06736e-014
lhumerus -39.5812 -3.15118 92.6557
lradius 20.1828
lwrist 13.2013
lhand -14.9723 9.81976
lfingers 7.12502
lthumb 11.1915 39.5013
rfemur -9.12855 2.64113 38.7588
rtibia 29.4356
rfoot -18.3264 -12.1175
rtoes 5.24225
lfemur 2.6638 6.69299 -6.14977
ltibia 63.2618
lfoot 9.77196 1.33091
ltoes -8.61183
380
root 41.5989 15.9069 11.9798 168.475 -41.8403 -167.341
lowerback -6.61055 -5.43483 5.89616
upperback -0.813784 -8.44576 7.40615
thorax 3.15512 -4.39597 3.62349
lowerneck 1.51722 10.2342 9.66084
upperneck 3.49746 14.022 -9.5364
head 2.14929 6.9951 -4.02903
rclavicle 1.8487e-014 2.38542e-014
rhumerus -35.0796 -2.74338 -77.3166
rradius 26.9171
rwrist 0.586915
rhand -17.8334 -4.6023
rfingers 7.12502
rthumb 8.43116 -34.414
lclavicle 1.8487e-014 2.38542e-014
lhumerus -39.4067 -3.90588 92.5401
lradius 20.6289
lwrist 13.8809
lhand -14.9687 9.56935
lfingers 7.12502
lthumb 11.1949 39.2507
rfemur -8.25548 2.46432 39.3381
rtibia 28.9569
rfoot -18.5052 -12.4023
rtoes 5.17022
lfemur 0.719972 5.84833 -5.74508
ltibia 66.0313
lfoot 8.80159 1.19211
ltoes -9.75471
381
root 41.5488 15.8945 11.9037 167.767 -42.0788 -166.751
lowerback -6.33916 -5.21219 6.19595
upperback -0.63948 -8.14479 7.32476
thorax 3.12465 -4.23731 3.42427
lowerneck 1.56752 10.054 9.52103
upperneck 3.29711 13.7646 -9.34188
head 2.03351 6.87237 -3.97482
rclavicle -3.16068e-014 -1.43125e-014
rhumerus -34.7003 -2.65515 -77.7747
rradius 26.7369
rwrist 0.810728
rhand -17.8028 -4.51333
rfingers 7.12502
rthumb 8.46062 -34.3239
lclavicle -3.16068e-014 -1.43125e-014
lhumerus -39.1187 -4.48009 92.3073
lradius 20.9735
lwrist 14.4434
lhand -14.9079 9.35117
lfingers 7.12502
lthumb 11.2536 39.0293
rfemur -7.3882 2.28766 39.8567
rtibia 28.479
rfoot -18.6735 -12.6817
rtoes 5.09384
lfemur -1.21211 4.9725 -5.44178
ltibia 68.6388
lfoot 7.85662 1.16025
ltoes -11.0877
382
root 41.4985 15.8838 11.8278 167.115 -42.3155 -166.235
lowerback -6.08246 -4.97461 6.44939
upperback -0.468023 -7.81762 7.22624
thorax 3.10596 -4.06459 3.23079
lowerneck 1.6374 9.8583 9.37733
upperneck 3.09891 13.4881 -9.13852
head 1.91347 6.74019 -3.91871
rclavicle -8.26944e-014 -6.52014e-014
rhumerus -34.3397 -2.57432 -78.2133
rradius 26.5473
rwrist 1.03269
rhand -17.7388 -4.42786
rfingers 7.12502
rthumb 8.52245 -34.2359
lclavicle -8.26944e-014 -6.52014e-014
lhumerus -38.7219 -4.86054 91.9643
lradius 21.214
lwrist 14.8768
lhand -14.8255 9.17774
lfingers 7.12502
lthumb 11.3331 38.8515
rfemur -6.53125 2.12548 40.3136
rtibia 28.0028
rfoot -18.834 -12.9564
rtoes 5.01471
lfemur -3.14655 4.04955 -5.24049
ltibia 71.0843
lfoot 6.9055 1.28286
ltoes -12.0999
383
root 41.449 15.8735 11.7528 166.524 -42.5383 -165.776
lowerback -5.85399 -4.71625 6.66965
upperback -0.302835 -7.46032 7.11685
thorax 3.10236 -3.87606 3.04162
lowerneck 1.72909 9.64202 9.23089
upperneck 2.9048 13.1859 -8.92125
head 1.78867 6.59537 -3.85955
rclavicle -5.07895e-014 7.31528e-014
rhumerus -34.0043 -2.48748 -78.6381
rradius 26.3569
rwrist 1.25449
rhand -17.6284 -4.33744
rfingers 7.12502
rthumb 8.62896 -34.1411
lclavicle -5.07895e-014 7.31528e-014
lhumerus -38.2254 -5.07399 91.5374
lradius 21.3596
lwrist 15.1947
lhand -14.7787 9.06227
lfingers 7.12502
lthumb 11.3781 38.7336
rfemur -5.70622 1.99668 40.73
rtibia 27.5333
rfoot -18.9817 -13.2285
rtoes 4.92733
lfemur -5.08074 3.12053 -5.11401
ltibia 73.3587
lfoot 5.94165 1.51124
ltoes -13.1412
384
root 41.3995 15.8641 11.6783 165.994 -42.7471 -165.366
lowerback -5.66459 -4.43637 6.87008
upperback -0.14641 -7.07403 6.99423
thorax 3.11564 -3.67205 2.84637
lowerneck 1.81209 9.40667 9.12809
upperneck 2.68598 12.8462 -8.35567
head 1.81602 6.44701 -4.11293
rclavicle 8.29926e-014 1.43125e-014
rhumerus -33.6956 -2.41264 -79.043
rradius 26.1554
rwrist 1.51688
rhand -17.4479 -4.22212
rfingers 7.12502
rthumb 8.80314 -34.0185
lclavicle 8.29926e-014 1.43125e-014
lhumerus -37.6345 -5.09716 91.013
lradius 21.415
lwrist 15.4294
lhand -14.7387 8.99725
lfingers 7.12502
lthumb 11.4168 38.6664
rfemur -4.91106 1.89111 41.1096
rtibia 27.0628
rfoot -19.1194 -13.4828
rtoes 4.8616
lfemur -7.01417 2.17909 -5.05552
ltibia 75.4559
lfoot 4.96352 1.86534
ltoes -14.006
385
root 41.3496 15.8558 11.604 165.527 -42.9382 -164.995
lowerback -5.52489 -4.13528 7.05933
upperback -0.00265331 -6.66177 6.86256
thorax 3.14774 -3.45421 2.64421
lowerneck 1.93311 9.15312 8.96144
upperneck 2.5376 12.4982 -8.0676
head 1.67447 6.27746 -4.00929
rclavicle 3.86636e-014 -5.24792e-014
rhumerus -33.4182 -2.33499 -79.428
rradius 25.9465
rwrist 1.81522
rhand -17.2245 -4.08131
rfingers 7.12502
rthumb 9.01874 -33.8685
lclavicle 3.86636e-014 -5.24792e-014
lhumerus -36.9671 -4.91691 90.4021
lradius 21.388
lwrist 15.5675
lhand -14.7402 8.96777
lfingers 7.12502
lthumb 11.4153 38.637
rfemur -4.14988 1.80012 41.4602
rtibia 26.5871
rfoot -19.2315 -13.7179
rtoes 4.76534
lfemur -8.94918 1.2402 -5.04506
ltibia 77.3672
lfoot 3.95738 2.35606
ltoes -14.5907
386
root 41.2992 15.8491 11.5298 165.119 -43.1157 -164.647
lowerback -5.43638 -3.81817 7.24396
upperback 0.12255 -6.23178 6.72763
thorax 3.19386 -3.22712 2.43784
lowerneck 2.04955 8.88956 8.77363
upperneck 2.43937 12.137 -7.71839
head 1.54541 6.10089 -3.87892
rclavicle 5.71506e-014 -9.54166e-014
rhumerus -33.1679 -2.22763 -79.8033
rradius 25.7267
rwrist 2.10708
rhand -16.9754 -3.93409
rfingers 7.12502
rthumb 9.25912 -33.7108
lclavicle 5.71506e-014 -9.54166e-014
lhumerus -36.246 -4.52388 89.7164
lradius 21.2925
lwrist 15.6219
lhand -14.7943 8.95543
lfingers 7.12502
lthumb 11.3631 38.6276
rfemur -3.42398 1.71896 41.7906
rtibia 26.0923
rfoot -19.3152 -13.9275
rtoes 4.6663
lfemur -10.8962 0.295671 -5.06401
ltibia 79.0872
lfoot 2.93177 2.97806
ltoes -14.7674
387
root 41.248 15.8438 11.4557 164.752 -43.2716 -164.309
lowerback -5.39412 -3.48583 7.43692
upperback 0.233333 -5.78645 6.59065
thorax 3.25482 -2.99189 2.22233
lowerneck 2.15321 8.6238 8.56096
upperneck 2.40145 11.7726 -7.30423
head 1.43458 5.92196 -3.71902
rclavicle -3.01159e-014 -9.54166e-015
rhumerus -32.9373 -2.08323 -80.1772
rradius 25.482
rwrist 2.41025
rhand -16.7528 -3.80485
rfingers 7.12502
rthumb 9.47383 -33.5719
lclavicle -3.01159e-014 -9.54166e-015
lhumerus -35.4918 -3.89293 88.9565
lradius 21.1388
lwrist 15.5612
lhand -14.8988 8.93963
lfingers 7.12502
lthumb 11.2624 38.6173
rfemur -2.71316 1.62595 42.1083
rtibia 25.5671
rfoot -19.3524 -14.1043
rtoes 4.47739
lfemur -12.8295 -0.637622 -5.09167
ltibia 80.607
lfoot 1.88888 3.69764
ltoes -14.6213
388
root 41.1958 15.8396 11.3816 164.418 -43.4115 -163.981
lowerback -5.39138 -3.14387 7.63897
upperback 0.331429 -5.33285 6.45123
thorax 3.32901 -2.75203 1.99753
lowerneck 2.24083 8.36126 8.32321
upperneck 2.42981 11.4117 -6.82946
head 1.34589 5.74397 -3.53099
rclavicle 7.90169e-014 -4.21423e-014
rhumerus -32.7164 -1.89493 -80.5556
rradius 25.2069
rwrist 2.71061
rhand -16.5684 -3.70994
rfingers 7.12502
rthumb 9.65174 -33.4688
lclavicle 7.90169e-014 -4.21423e-014
lhumerus -34.7343 -3.04393 88.147
lradius 20.9448
lwrist 15.376
lhand -15.1032 8.87878
lfingers 7.12502
lthumb 11.0652 38.5671
rfemur -2.00636 1.52439 42.4136
rtibia 25.0019
rfoot -19.3474 -14.2491
rtoes 4.24144
lfemur -14.7356 -1.55936 -5.12438
ltibia 81.9168
lfoot 0.854529 4.48208
ltoes -14.2165
